<svg xmlns="http://www.w3.org/2000/svg" xmlns:xlink="http://www.w3.org/1999/xlink" width="500" zoomAndPan="magnify" viewBox="0 0 375 374.999991" height="500" preserveAspectRatio="xMidYMid meet" version="1.0"><defs><clipPath id="e966b1d122"><path d="M 13.582031 13.582031 L 140.332031 13.582031 L 140.332031 140.332031 L 13.582031 140.332031 Z M 13.582031 13.582031 " clip-rule="nonzero"/></clipPath><clipPath id="40d078c2c2"><path d="M 225.464844 21 L 352.214844 21 L 352.214844 147.714844 L 225.464844 147.714844 Z M 225.464844 21 " clip-rule="nonzero"/></clipPath><clipPath id="d2e586d75a"><path d="M 13.582031 233 L 140.332031 233 L 140.332031 359.738281 L 13.582031 359.738281 Z M 13.582031 233 " clip-rule="nonzero"/></clipPath></defs><path fill="#030104" d="M 56.574219 49.730469 C 53.367188 49.730469 51.1875 50.042969 50.058594 50.363281 L 50.058594 70.976562 C 51.40625 71.28125 53.054688 71.382812 55.332031 71.382812 C 63.726562 71.382812 68.90625 67.136719 68.90625 59.984375 C 68.898438 53.570312 64.445312 49.730469 56.574219 49.730469 Z M 56.574219 49.730469 " fill-opacity="1" fill-rule="nonzero"/><g clip-path="url(#e966b1d122)"><path fill="#030104" d="M 132.578125 13.597656 L 21.347656 13.597656 C 17.058594 13.597656 13.582031 17.066406 13.582031 21.339844 L 13.582031 132.5625 C 13.582031 136.84375 17.058594 140.316406 21.347656 140.316406 L 132.578125 140.316406 C 136.855469 140.316406 140.332031 136.84375 140.332031 132.5625 L 140.332031 21.347656 C 140.332031 17.066406 136.855469 13.597656 132.578125 13.597656 Z M 78.113281 76.15625 C 72.738281 81.234375 64.75 83.511719 55.441406 83.511719 C 53.359375 83.511719 51.5 83.410156 50.050781 83.203125 L 50.050781 108.175781 L 34.398438 108.175781 L 34.398438 39.273438 C 39.269531 38.457031 46.101562 37.832031 55.746094 37.832031 C 65.476562 37.832031 72.425781 39.6875 77.078125 43.425781 C 81.554688 46.953125 84.550781 52.757812 84.550781 59.589844 C 84.550781 66.425781 82.265625 72.207031 78.113281 76.15625 Z M 101.703125 109.207031 C 95.058594 109.207031 89.15625 107.769531 85.320312 105.6875 L 88.113281 94.398438 C 91.015625 96.144531 97.03125 98.21875 101.703125 98.21875 C 106.457031 98.21875 108.429688 96.566406 108.429688 93.96875 C 108.429688 91.386719 106.875 90.144531 100.976562 88.171875 C 90.515625 84.652344 86.464844 78.949219 86.566406 72.941406 C 86.566406 63.523438 94.652344 56.355469 107.1875 56.355469 C 113.09375 56.355469 118.375 57.710938 121.480469 59.257812 L 118.6875 70.140625 C 116.410156 68.894531 112.0625 67.246094 107.703125 67.246094 C 103.878906 67.246094 101.710938 68.796875 101.710938 71.390625 C 101.710938 73.769531 103.664062 75.007812 109.878906 77.195312 C 119.515625 80.503906 123.566406 85.378906 123.660156 92.824219 C 123.660156 102.261719 116.1875 109.207031 101.703125 109.207031 Z M 101.703125 109.207031 " fill-opacity="1" fill-rule="nonzero"/></g><g clip-path="url(#40d078c2c2)"><path fill="#000000" d="M 281.808594 74.929688 L 286.558594 89.804688 L 271.054688 89.804688 L 275.714844 74.929688 C 276.792969 71.34375 277.6875 67.132812 278.582031 63.640625 L 278.761719 63.640625 C 279.660156 67.132812 280.644531 71.253906 281.808594 74.929688 Z M 352.09375 42.171875 L 352.09375 126.507812 C 352.09375 138.101562 342.605469 147.589844 331.007812 147.589844 L 246.675781 147.589844 C 235.078125 147.589844 225.589844 138.101562 225.589844 126.507812 L 225.589844 42.171875 C 225.589844 30.574219 235.078125 21.089844 246.675781 21.089844 L 331.007812 21.089844 C 342.605469 21.089844 352.09375 30.574219 352.09375 42.171875 Z M 305.738281 115.257812 L 286.109375 54.855469 L 272.042969 54.855469 L 252.683594 115.257812 L 264.066406 115.257812 L 269.265625 98.140625 L 288.441406 98.140625 L 293.90625 115.257812 Z M 324.371094 71.613281 L 313.257812 71.613281 L 313.257812 115.257812 L 324.371094 115.257812 Z M 324.996094 59.425781 C 324.910156 56.023438 322.578125 53.421875 318.816406 53.421875 C 315.140625 53.421875 312.632812 56.023438 312.632812 59.425781 C 312.632812 62.742188 315.050781 65.339844 318.726562 65.339844 C 322.578125 65.339844 324.996094 62.742188 324.996094 59.425781 Z M 324.996094 59.425781 " fill-opacity="1" fill-rule="nonzero"/></g><g clip-path="url(#d2e586d75a)"><path fill="#000000" d="M 119.125 233.113281 L 34.789062 233.113281 C 23.195312 233.113281 13.707031 242.601562 13.707031 254.199219 L 13.707031 338.53125 C 13.707031 350.128906 23.195312 359.617188 34.789062 359.617188 L 119.125 359.617188 C 130.722656 359.617188 140.210938 350.128906 140.210938 338.53125 L 140.210938 254.199219 C 140.207031 242.601562 130.722656 233.113281 119.125 233.113281 Z M 74.316406 297.484375 C 69.925781 301.875 63.023438 303.9375 55.226562 303.9375 C 53.167969 303.9375 51.285156 303.847656 49.851562 303.578125 L 49.851562 326.339844 L 38.917969 326.339844 L 38.917969 266.746094 C 42.863281 266.03125 48.328125 265.492188 55.765625 265.492188 C 63.832031 265.492188 69.746094 267.195312 73.601562 270.421875 C 77.183594 273.378906 79.515625 278.128906 79.515625 283.773438 C 79.515625 289.511719 77.722656 294.257812 74.316406 297.484375 Z M 97.253906 327.238281 C 91.964844 327.238281 87.214844 325.980469 83.988281 324.191406 L 86.140625 316.214844 C 88.648438 317.738281 93.398438 319.351562 97.34375 319.351562 C 102.179688 319.351562 104.332031 317.378906 104.332031 314.511719 C 104.332031 311.554688 102.539062 310.03125 97.164062 308.148438 C 88.648438 305.191406 85.066406 300.53125 85.15625 295.425781 C 85.15625 287.71875 91.519531 281.714844 101.644531 281.714844 C 106.484375 281.714844 110.695312 282.96875 113.203125 284.3125 L 111.054688 292.109375 C 109.171875 291.035156 105.675781 289.597656 101.824219 289.597656 C 97.878906 289.597656 95.730469 291.480469 95.730469 294.167969 C 95.730469 296.949219 97.789062 298.292969 103.347656 300.265625 C 111.230469 303.132812 114.90625 307.164062 114.996094 313.617188 C 114.996094 321.503906 108.8125 327.238281 97.253906 327.238281 Z M 68.492188 284.222656 C 68.492188 291.300781 63.472656 295.335938 55.226562 295.335938 C 52.988281 295.335938 51.195312 295.246094 49.851562 294.886719 L 49.851562 274.453125 C 51.015625 274.1875 53.167969 273.917969 56.214844 273.917969 C 63.832031 273.917969 68.492188 277.5 68.492188 284.222656 Z M 68.492188 284.222656 " fill-opacity="1" fill-rule="nonzero"/></g><path fill="#000000" d="M 293.066406 263.886719 L 272.46875 297.683594 L 294.386719 333.597656 C 294.589844 333.824219 294.675781 334.089844 294.652344 334.390625 C 294.386719 334.652344 294.121094 334.390625 293.859375 334.390625 L 278.277344 334.390625 C 276.957031 334.390625 276.429688 334.390625 275.902344 333.597656 L 271.414062 325.148438 C 270.09375 322.242188 268.507812 319.601562 266.925781 316.433594 C 265.339844 313.265625 263.492188 310.625 261.90625 307.71875 L 257.152344 316.433594 C 255.570312 319.339844 253.984375 322.242188 252.664062 325.148438 L 247.910156 333.863281 C 247.753906 334.144531 247.53125 334.355469 247.242188 334.5 C 246.953125 334.644531 246.648438 334.695312 246.328125 334.652344 L 231.277344 334.652344 C 231.011719 334.652344 230.746094 334.652344 230.746094 334.390625 C 230.722656 334.089844 230.808594 333.824219 231.011719 333.597656 L 252.136719 298.742188 L 231.539062 263.886719 L 231.539062 263.09375 L 248.441406 263.09375 L 249.230469 263.886719 C 250.550781 266.789062 251.871094 269.695312 253.457031 272.597656 C 255.042969 275.503906 256.625 278.410156 258.472656 281.3125 C 260.324219 284.21875 261.644531 287.121094 262.964844 290.027344 L 263.226562 290.027344 C 264.546875 286.859375 266.132812 283.953125 267.453125 281.050781 L 272.207031 272.597656 C 273.789062 269.695312 275.375 266.789062 276.695312 263.886719 L 277.222656 263.355469 L 292.539062 263.355469 L 293.332031 263.886719 L 293.332031 264.414062 Z M 335.050781 334.917969 C 338.839844 334.175781 342.535156 333.121094 346.144531 331.75 C 346.402344 331.636719 346.605469 331.460938 346.75 331.214844 C 346.898438 330.972656 346.957031 330.710938 346.933594 330.429688 C 346.933594 329.371094 346.671875 328.050781 346.671875 326.46875 C 346.671875 324.882812 346.40625 323.828125 346.40625 322.507812 L 346.40625 257.546875 C 346.40625 257.402344 346.355469 257.277344 346.253906 257.175781 C 346.148438 257.070312 346.023438 257.019531 345.878906 257.019531 L 331.882812 257.019531 C 331.621094 257.019531 331.355469 257.285156 331.355469 257.8125 L 331.355469 279.464844 L 327.660156 279.464844 C 324.675781 279.386719 321.730469 279.679688 318.824219 280.351562 C 315.917969 281.023438 313.140625 282.046875 310.496094 283.425781 C 308.261719 284.6875 306.230469 286.214844 304.394531 288.003906 C 302.558594 289.792969 300.984375 291.789062 299.667969 293.988281 C 298.347656 296.175781 297.375 298.503906 296.746094 300.976562 C 296.117188 303.449219 295.859375 305.960938 295.972656 308.511719 C 295.84375 311.230469 296.097656 313.914062 296.726562 316.5625 C 297.351562 319.210938 298.335938 321.71875 299.667969 324.089844 C 300.949219 325.992188 302.464844 327.679688 304.214844 329.160156 C 305.964844 330.640625 307.878906 331.855469 309.964844 332.804688 C 314.574219 334.9375 319.414062 335.992188 324.488281 335.972656 C 328.039062 335.898438 331.558594 335.546875 335.050781 334.917969 Z M 328.714844 322.507812 L 326.074219 322.507812 C 324.0625 322.566406 322.125 322.214844 320.265625 321.449219 C 318.484375 321.054688 316.988281 320.175781 315.777344 318.808594 C 314.355469 317.570312 313.300781 316.074219 312.605469 314.320312 C 311.726562 312.023438 311.375 309.644531 311.550781 307.191406 C 311.445312 305.664062 311.570312 304.15625 311.929688 302.671875 C 312.292969 301.183594 312.867188 299.785156 313.664062 298.476562 C 315.160156 296.292969 317.09375 294.621094 319.472656 293.460938 C 321.863281 292.175781 324.417969 291.5625 327.128906 291.613281 L 331.355469 291.613281 L 331.355469 322.242188 Z M 328.714844 322.507812 " fill-opacity="1" fill-rule="nonzero"/><path fill="#000000" d="M 182.875 148.199219 L 168.863281 148.199219 C 161.125 148.199219 154.851562 154.472656 154.851562 162.210938 C 154.851562 169.949219 161.125 176.222656 168.863281 176.222656 L 182.875 176.222656 Z M 182.875 138.699219 L 206.386719 138.699219 C 219.375 138.699219 229.902344 149.222656 229.902344 162.210938 C 229.902344 169.871094 226.234375 176.679688 220.5625 180.972656 C 226.234375 185.265625 229.902344 192.070312 229.902344 199.734375 C 229.902344 212.71875 219.375 223.246094 206.386719 223.246094 C 201.136719 223.246094 196.289062 221.527344 192.375 218.617188 L 192.375 237.261719 C 192.375 250.246094 181.847656 260.773438 168.863281 260.773438 C 155.878906 260.773438 145.351562 250.246094 145.351562 237.261719 C 145.351562 229.597656 149.015625 222.789062 154.691406 218.496094 C 149.015625 214.203125 145.351562 207.398438 145.351562 199.734375 C 145.351562 192.070312 149.015625 185.265625 154.691406 180.972656 C 149.015625 176.679688 145.351562 169.871094 145.351562 162.210938 C 145.351562 149.222656 155.878906 138.699219 168.863281 138.699219 Z M 192.375 148.199219 L 192.375 176.222656 L 206.386719 176.222656 C 214.128906 176.222656 220.402344 169.949219 220.402344 162.210938 C 220.402344 154.472656 214.128906 148.199219 206.386719 148.199219 Z M 168.863281 213.746094 L 182.875 213.746094 L 182.875 185.722656 L 168.863281 185.722656 C 161.125 185.722656 154.851562 191.996094 154.851562 199.734375 C 154.851562 207.457031 161.09375 213.71875 168.808594 213.746094 Z M 154.851562 237.261719 C 154.851562 229.539062 161.09375 223.277344 168.808594 223.246094 L 182.875 223.246094 L 182.875 237.261719 C 182.875 245 176.601562 251.273438 168.863281 251.273438 C 161.125 251.273438 154.851562 245 154.851562 237.261719 Z M 192.375 199.707031 C 192.390625 191.980469 198.660156 185.722656 206.386719 185.722656 C 214.128906 185.722656 220.402344 191.996094 220.402344 199.734375 C 220.402344 207.472656 214.128906 213.746094 206.386719 213.746094 C 198.660156 213.746094 192.390625 207.488281 192.375 199.761719 Z M 192.375 199.707031 " fill-opacity="1" fill-rule="evenodd"/></svg>